{"title":"House At The End Of The Street [2012] BRRip x264 AAC-V3nom","uid":8020062,"size":332793704,"categoryP":"video","categoryS":"movies","magnet":"?xt=urn:btih:5ecf015bdfea21f11df8d3377959838bbd3ca18a&amp;dn=House+At+The+End+Of+The+Street+%5B2012%5D+BRRip+x264+AAC-V3nom&amp;tr=udp%3A%2F%2Ftracker.openbittorrent.com%3A80&amp;tr=udp%3A%2F%2Fopen.demonii.com%3A1337&amp;tr=udp%3A%2F%2Ftracker.coppersurfer.tk%3A6969&amp;tr=udp%3A%2F%2Fexodus.desync.com%3A6969","seeders":0,"leechers":1,"uploader":"V3nom","files":-1,"time":1358182783,"description":"[img]http://img441.imageshack.us/img441/2268/10647834135153226785413.jpg[/img]\n\n[b][size=200][color=black]PLOT[/color][/size][/b]\n\n[code]A mother and daughter move to a new town and find themselves \nliving next door to a house where a young girl murdered her parents.\nWhen the daughter befriends the surviving son, she learns the story is \nfar from over.[/code]\n\n[b][size=200][color=black]IMDB[/color][/size][/b]\n\n[code]http://www.imdb.com/title/tt1582507/[/code]\n\n[b][size=200][color=black]MOVIE INFO[/color][/size][/b]\n\n[code]House At The End Of The Street [2012] BRRip x264 AAC-V3nom\n\nFormat                                   : MPEG-4\nFormat profile                           : Base Media / Version 2\nCodec ID                                 : mp42\nFile size                                : 314 MiB\nDuration                                 : 1h 41mn\nOverall bit rate mode                    : Variable\nOverall bit rate                         : 431 Kbps\nEncoded date                             : UTC 2013-01-14 13:17:47\nTagged date                              : UTC 2013-01-14 13:48:49\n\nVideo\nID                                       : 1\nFormat                                   : AVC\nFormat/Info                              : Advanced Video Codec\nFormat profile                           : &lt;a class=&quot;__cf_email__&quot; href=&quot;/cdn-cgi/l/email-protection&quot; data-cfemail=&quot;662b070f08262a544857&quot;&gt;[email&amp;#160;protected]&lt;/a&gt;&lt;script cf-hash='f9e31' type=&quot;text/javascript&quot;&gt;\n/* &lt;![CDATA[ */!function(){try{var t=&quot;currentScript&quot;in document?document.currentScript:function(){for(var t=document.getElementsByTagName(&quot;script&quot;),e=t.length;e--;)if(t[e].getAttribute(&quot;cf-hash&quot;))return t[e]}();if(t&amp;&amp;t.previousSibling){var e,r,n,i,c=t.previousSibling,a=c.getAttribute(&quot;data-cfemail&quot;);if(a){for(e=&quot;&quot;,r=parseInt(a.substr(0,2),16),n=2;a.length-n;n+=2)i=parseInt(a.substr(n,2),16)^r,e+=String.fromCharCode(i);e=document.createTextNode(e),c.parentNode.replaceChild(e,c)}}}catch(u){}}();/* ]]&gt; */&lt;/script&gt;\nFormat settings, CABAC                   : Yes\nFormat settings, ReFrames                : 4 frames\nCodec ID                                 : avc1\nCodec ID/Info                            : Advanced Video Coding\nDuration                                 : 1h 41mn\nBit rate mode                            : Variable\nBit rate                                 : 333 Kbps\nWidth                                    : 640 pixels\nHeight                                   : 272 pixels\nDisplay aspect ratio                     : 2.35:1\nFrame rate mode                          : Variable\nFrame rate                               : 23.976 fps\nMinimum frame rate                       : 23.974 fps\nMaximum frame rate                       : 90 000.000 fps\nColor space                              : YUV\nChroma subsampling                       : 4:2:0\nBit depth                                : 8 bits\nScan type                                : Progressive\nBits/(Pixel*Frame)                       : 0.080\nStream size                              : 240 MiB (77%)\nWriting library                          : x264 core 112\n\nAudio\nID                                       : 2\nFormat                                   : AAC\nFormat/Info                              : Advanced Audio Codec\nFormat profile                           : LC\nCodec ID                                 : 40\nDuration                                 : 1h 41mn\nBit rate mode                            : Variable\nBit rate                                 : 96.0 Kbps\nMaximum bit rate                         : 118 Kbps\nChannel(s)                               : 2 channels\nChannel positions                        : Front: L R\nSampling rate                            : 48.0 KHz\nCompression mode                         : Lossy\nDelay relative to video                  : 83ms\nStream size                              : 69.7 MiB (22%)\nEncoded date                             : UTC 2013-01-14 13:17:47\nTagged date                              : UTC 2013-01-14 13:48:44[/code]\n\n[b][size=200][color=black]SOURCE[/color][/size][/b]\n\n[code]House At The End Of The Street 2012 BDRip XviD-SPARKS(Thanks)[/code]\n\n[b][size=200][color=black]SCREENSHOTS[/color][/size][/b]\n\n[img]http://img689.imageshack.us/img689/7671/houseattheendofthestreese.jpg[/img]\n\n[img]http://kastatic.com/i2/users/133df62bbf28e62494bb17fe11078f1a.gif[/img][img]http://kastatic.com/i2/users/133df62bbf28e62494bb17fe11078f1a.gif[/img]","torrent":{"xt":"urn:btih:5ecf015bdfea21f11df8d3377959838bbd3ca18a","amp;dn":"House+At+The+End+Of+The+Street+%5B2012%5D+BRRip+x264+AAC-V3nom","amp;tr":["udp%3A%2F%2Ftracker.openbittorrent.com%3A80","udp%3A%2F%2Fopen.demonii.com%3A1337","udp%3A%2F%2Ftracker.coppersurfer.tk%3A6969","udp%3A%2F%2Fexodus.desync.com%3A6969"],"infoHash":"5ecf015bdfea21f11df8d3377959838bbd3ca18a","infoHashBuffer":{"type":"Buffer","data":[94,207,1,91,223,234,33,241,29,248,211,55,121,89,131,139,189,60,161,138]},"announce":[],"urlList":[]}}